<svg width="96" height="38" viewBox="0 0 96 38" fill="none" xmlns="http://www.w3.org/2000/svg">
<path d="M3 16.5C1.61929 16.5 0.5 17.6193 0.5 19C0.5 20.3807 1.61929 21.5 3 21.5L3 16.5ZM94.7678 20.7678C95.7441 19.7914 95.7441 18.2085 94.7678 17.2322L78.8579 1.32232C77.8816 0.346013 76.2986 0.346013 75.3223 1.32232C74.346 2.29863 74.346 3.88155 75.3223 4.85786L89.4645 19L75.3223 33.1421C74.346 34.1184 74.346 35.7014 75.3223 36.6777C76.2986 37.654 77.8816 37.654 78.8579 36.6777L94.7678 20.7678ZM3 21.5L93 21.5L93 16.5L3 16.5L3 21.5Z" fill="#191919"/>
</svg>
