<svg width="100" height="115" viewBox="0 0 100 115" fill="none" xmlns="http://www.w3.org/2000/svg">
<g opacity="0.3">
<path d="M28.9985 8.71565C37.5832 3.70015 47.3394 1.03881 57.2818 1.00042C67.2243 0.962032 77.0007 3.54795 85.624 8.49701C94.2472 13.4461 101.412 20.583 106.394 29.187C111.376 37.7911 114 47.5575 114 57.5" stroke="white" stroke-width="2"/>
<path d="M11.1347 89.7879C5.00266 80.9823 1.50492 70.6126 1.05065 59.8919C0.596388 49.1712 3.20439 38.5428 8.56956 29.25" stroke="white" stroke-width="2"/>
<path d="M112.075 72.1233C109.832 80.4944 105.693 88.2373 99.9789 94.753C94.2648 101.269 87.1283 106.383 79.1216 109.699C71.1149 113.016 62.4526 114.446 53.8047 113.879C45.1569 113.312 36.7553 110.764 29.25 106.43" stroke="white" stroke-width="2"/>
<path d="M31.9522 72.25C28.3738 66.0519 27.1706 58.7643 28.5668 51.7448C29.9631 44.7254 33.8636 38.4529 39.5415 34.0961C45.2195 29.7392 52.2878 27.5951 59.4294 28.0632C66.571 28.5312 73.2989 31.5796 78.3597 36.6404C83.4204 41.7011 86.4688 48.429 86.9368 55.5706C87.4049 62.7122 85.2608 69.7805 80.9039 75.4585C76.5471 81.1364 70.2746 85.0369 63.2552 86.4332C56.2357 87.8294 48.9481 86.6262 42.75 83.0477" stroke="white" stroke-width="2"/>
</g>
</svg>
