<svg width="38" height="36" viewBox="0 0 38 36" fill="none" xmlns="http://www.w3.org/2000/svg">
<path d="M8.6262 36V11.7109H0.480472V36H8.6262ZM4.55439 8.39261C7.39495 8.39261 9.16306 6.52748 9.16306 4.1967C9.11014 1.81336 7.39506 0 4.60829 0C1.82197 0 -0.00012207 1.81339 -0.00012207 4.1967C-0.00012207 6.52759 1.76755 8.39261 4.50121 8.39261H4.55414H4.55439ZM13.1348 36H21.2806V22.4358C21.2806 21.7098 21.3335 20.9846 21.5486 20.4657C22.1375 19.0153 23.4778 17.5131 25.728 17.5131C28.6756 17.5131 29.8548 19.7405 29.8548 23.0057V35.9998H38V22.0727C38 14.612 33.9813 11.1406 28.6219 11.1406C24.2276 11.1406 22.2982 13.575 21.2264 15.2331H21.2807V11.7104H13.135C13.2419 13.9895 13.135 35.9995 13.135 35.9995L13.1348 36Z" fill="white"/>
</svg>
