<svg width="36" height="36" viewBox="0 0 36 36" fill="none" xmlns="http://www.w3.org/2000/svg">
<g opacity="0.6">
<path d="M29.385 10.035C27.8897 9.70619 26.537 8.91215 25.5211 7.76684C24.5051 6.62152 23.8781 5.18381 23.73 3.66V3H18.555V23.505C18.556 24.4148 18.2708 25.302 17.7396 26.0407C17.2085 26.7794 16.4584 27.3323 15.5956 27.621C14.7327 27.9097 13.801 27.9196 12.9322 27.6493C12.0634 27.379 11.3017 26.8422 10.755 26.115C10.2651 25.4713 9.9652 24.7033 9.88907 23.898C9.81293 23.0927 9.96364 22.2821 10.3241 21.558C10.6846 20.8339 11.2406 20.225 11.929 19.8004C12.6175 19.3757 13.4111 19.1522 14.22 19.155C14.6673 19.1524 15.1125 19.2182 15.54 19.35V14.1C15.0425 14.0384 14.5411 14.0133 14.04 14.025C12.1939 14.0743 10.4024 14.6609 8.8846 15.7129C7.36685 16.7649 6.18881 18.2367 5.49474 19.948C4.80067 21.6593 4.62069 23.5358 4.97685 25.3478C5.33301 27.1599 6.20984 28.8287 7.49997 30.15C8.8222 31.4943 10.5142 32.4152 12.361 32.7957C14.2078 33.1762 16.126 32.9991 17.872 32.2869C19.6179 31.5747 21.1127 30.3596 22.1664 28.7959C23.2202 27.2322 23.7853 25.3906 23.79 23.505V13.005C25.8772 14.4959 28.38 15.2935 30.945 15.285V10.185C30.4411 10.1871 29.9384 10.1368 29.445 10.035H29.385Z" fill="white"/>
</g>
</svg>
